<svg width="40" height="40" xmlns="http://www.w3.org/2000/svg" xmlns:svg="http://www.w3.org/2000/svg">
 <g class="layer">
  <title>Layer 1</title>
  <circle cx="20.2" cy="20.2" fill="#00000033" r="19.4"/>
  <circle cx="20" cy="20" fill="white" r="19"/>
  <path d="m10.70833,14.19375c0,-0.64052 0.52406,-1.16458 1.16458,-1.16458l18.63333,0c0.64052,0 1.16458,-0.52406 1.16458,-1.16458s-0.52406,-1.16458 -1.16458,-1.16458l-19.79792,0c-1.28104,0 -2.32917,1.04813 -2.32917,2.32917l0,12.81042l-0.58229,0c-0.9666,0 -1.74688,0.78027 -1.74688,1.74688s0.78027,1.74688 1.74688,1.74688l12.81042,0c0.9666,0 1.74688,-0.78027 1.74688,-1.74688s-0.78027,-1.74688 -1.74688,-1.74688l-9.89896,0l0,-11.64583zm22.12708,1.16458l-6.9875,0c-0.64052,0 -1.16458,0.52406 -1.16458,1.16458l0,11.64583c0,0.64052 0.52406,1.16458 1.16458,1.16458l6.9875,0c0.64052,0 1.16458,-0.52406 1.16458,-1.16458l0,-11.64583c0,-0.64052 -0.52406,-1.16458 -1.16458,-1.16458zm-1.16458,10.48125l-4.65833,0l0,-8.15208l4.65833,0l0,8.15208z" fill="black"/>
 </g>
</svg>